<?xml version="1.0" encoding="utf-8"?>
<!-- Generator: Adobe Illustrator 24.3.0, SVG Export Plug-In . SVG Version: 6.00 Build 0)  -->
<svg version="1.1" id="Layer_1" xmlns="http://www.w3.org/2000/svg" xmlns:xlink="http://www.w3.org/1999/xlink" x="0px" y="0px"
	 viewBox="0 0 1269 310" style="enable-background:new 0 0 1269 310;" xml:space="preserve">
<style type="text/css">
	.st0{fill:#1151FB;}
</style>
<g>
	<path class="st0" d="M168.57,103.98c0,61.48-35.77,97.53-95.86,97.53H5.36V6.45h67.35C132.8,6.45,168.57,42.22,168.57,103.98z
		 M72.43,142.27c19,0,29.06-14.81,29.06-38.29c0-23.75-10.06-38.29-29.06-38.29h-4.75v76.57H72.43z"/>
	<path class="st0" d="M173.04,103.98c0-60.92,40.24-100.61,102-100.61c62.04,0,102.56,39.68,102.56,100.61
		c0,60.64-40.52,100.61-102.56,100.61C213.28,204.59,173.04,164.91,173.04,103.98z M309.42,103.98c0-21.52-13.97-36.05-34.09-36.05
		s-33.82,14.53-33.82,36.05c0,21.24,13.69,35.77,33.82,35.77S309.42,125.22,309.42,103.98z"/>
	<path class="st0" d="M487.71,6.45h50.58v195.07h-73.5L436.01,90.85l1.96,110.67h-50.86V6.45h74.06L489.67,116L487.71,6.45z"/>
	<path class="st0" d="M548.91,197.32v-69.87c17.33,10.34,30.18,16.21,38.85,16.21c4.47,0,7.83-1.4,7.83-5.87
		c0-3.63-1.96-6.43-6.43-10.34l-17.89-15.37c-17.61-15.09-23.2-33.26-23.2-50.3c0-36.05,25.15-58.41,63.72-58.41
		c11.46,0,24.87,1.96,38.85,6.71v58.41c-13.97-7.55-24.31-12.85-31.86-12.85c-4.19,0-6.99,1.68-6.99,5.31c0,2.79,1.68,5.31,6.15,9.5
		l16.77,14.81c20.96,18.44,27.95,35.49,27.95,56.45c0,39.12-25.15,62.88-67.63,62.88C580.21,204.59,562.33,201.8,548.91,197.32z"/>
	<path class="st0" d="M732.8,146.46h40.24v55.05H670.76V6.45h102v55.33h-39.68v16.49h30.74v48.91H732.8V146.46z"/>
	<path class="st0" d="M928.7,145.9v55.61h-62.88v-57.29c0-10.34-3.91-15.65-11.46-15.65h-6.71v72.94h-62.32V6.45h86.36
		c36.33,0,58.13,19.28,58.13,52.82c0,24.03-11.46,38.57-28.5,45.55C919.2,109.29,928.7,123.27,928.7,145.9z M856.04,78.55
		c8.66,0,13.13-5.59,13.13-12.3c0-6.99-4.47-12.3-13.13-12.3h-8.38v24.59H856.04z"/>
	<path class="st0" d="M940.99,201.52V6.45h62.32v195.07H940.99z"/>
	<path class="st0" d="M1108.39,65.42h-28.23v19h25.99v54.22h-25.99v62.88h-62.32V6.45h90.55V65.42z"/>
	<path class="st0" d="M1200.61,201.52l-2.51-19.56h-33.54l-2.52,19.56h-60.36l34.09-195.07h91.11l35.21,195.07H1200.61z
		 M1170.99,131.65h20.68l-10.34-81.04L1170.99,131.65z"/>
</g>
<g>
	<path class="st0" d="M235.46,268.6c0,16.88-10.64,27.92-27.04,27.92h-13.68v-55.84h13.68C224.75,240.68,235.46,251.72,235.46,268.6
		z M208.18,291.56c13.44,0,21.68-9.12,21.68-22.96c0-13.84-8.24-22.96-21.68-22.96h-8.08v45.92H208.18z"/>
	<path class="st0" d="M277.06,276.68h-33.04c0.64,9.52,7.2,15.44,16.4,15.44c4.08,0,9.12-1.2,12.88-4.16v5.6
		c-3.92,2.32-8.72,3.36-13.28,3.36c-12.8,0-21.36-8.72-21.36-21.6c0-12.72,8.16-21.6,20.16-21.6
		C270.9,253.72,278.58,262.6,277.06,276.68z M244.1,272.2h27.92c-0.32-8.64-5.68-13.76-13.28-13.76S245.22,263.72,244.1,272.2z"/>
	<path class="st0" d="M315.54,258.84h-11.52v26.8c0,4.48,1.84,6.4,5.6,6.4c1.52,0,3.36-0.32,5.2-1.12v5.2
		c-1.84,0.48-3.84,0.88-6,0.88c-6.72,0-10-3.52-10-11.04v-27.12h-5.2v-3.2c4.48-0.96,5.68-2.16,6.56-6.88l0.48-3.12h3.36v8.48h11.52
		V258.84z"/>
	<path class="st0" d="M319.3,245.08c0-2.24,1.52-3.6,3.76-3.6s3.76,1.36,3.76,3.6s-1.6,3.68-3.76,3.68S319.3,247.32,319.3,245.08z
		 M320.5,296.52v-42.4h5.2v42.4H320.5z"/>
	<path class="st0" d="M372.9,275.32c0,12.64-7.6,21.6-19.36,21.6c-7.04,0-12.56-3.52-15.12-9.04v19.44h-5.12v-53.2h4.8v9.28
		c2.64-6.08,8.32-9.68,15.44-9.68C365.3,253.72,372.9,262.68,372.9,275.32z M367.54,275.32c0-10.08-5.92-16.64-14.56-16.64
		c-8.48,0-14.72,6.48-14.72,16.64s6.24,16.64,14.72,16.64C361.62,291.96,367.54,285.4,367.54,275.32z"/>
	<path class="st0" d="M376.26,275.32c0-12.72,8.56-21.6,20.96-21.6s20.88,8.88,20.88,21.6c0,12.72-8.48,21.6-20.88,21.6
		S376.26,288.04,376.26,275.32z M412.74,275.32c0-10-6.64-16.56-15.52-16.56c-8.88,0-15.52,6.56-15.52,16.56
		c0,10,6.64,16.56,15.52,16.56C406.1,291.88,412.74,285.32,412.74,275.32z"/>
	<path class="st0" d="M456.02,254.12h4.8v35.52c0,13.04-8.88,18.08-20,18.08c-5.68,0-10.48-1.36-14.56-3.44v-5.44
		c4.08,2.56,9.2,4.16,14.64,4.16c7.92,0,14.72-3.36,14.72-12.88v-4.08c-2.72,5.52-8.16,8.72-14.96,8.72
		c-11.76,0-19.2-8.24-19.2-20.4c0-12.08,7.44-20.64,19.28-20.64c7.28,0,12.72,3.6,15.28,9.28V254.12z M455.78,274.44
		c0-9.44-5.92-15.76-14.48-15.76c-8.8,0-14.4,6.4-14.4,15.68c0,9.36,5.6,15.76,14.4,15.76
		C449.86,290.12,455.78,283.88,455.78,274.44z"/>
	<path class="st0" d="M486.66,254.28v5.6c-1.52-0.64-3.2-1.12-4.96-1.12c-4.96,0-8.4,3.76-8.4,10.24v27.52h-5.12v-42.4h4.8v5.6
		c1.84-3.84,5.12-6,9.6-6C483.94,253.72,485.3,253.96,486.66,254.28z"/>
	<path class="st0" d="M515.7,268.28v28.24h-4.72v-4.72c-2.32,3.44-6.24,5.12-10.56,5.12c-8,0-13.36-5.52-13.36-13.6
		c0-8,5.36-13.44,13.36-13.44c4,0,7.76,1.36,10.08,4.4v-5.92c0-6.4-3.36-10-9.68-10c-4,0-7.84,1.52-10.48,3.28v-5.2
		c3.04-1.52,6.88-2.72,11.12-2.72C510.5,253.72,515.7,259,515.7,268.28z M510.82,283.24c0-5.84-3.92-9.28-9.12-9.28
		c-5.36,0-9.28,3.6-9.28,9.28s3.92,9.44,9.28,9.44C506.9,292.68,510.82,289.08,510.82,283.24z"/>
	<path class="st0" d="M529.62,249.4v4.72h9.36v4.72h-9.36v37.68h-5.2v-37.68h-4.4v-4.72h4.4v-5.04c0-7.04,3.76-10.16,9.6-10.16
		c2,0,3.92,0.4,5.6,0.96v5.04c-1.6-0.72-3.2-1.2-4.88-1.2C531.7,243.72,529.62,245.24,529.62,249.4z"/>
	<path class="st0" d="M543.22,250.04l6.72-11.6h5.84l-7.52,11.6H543.22z M543.78,296.52v-42.4h5.2v42.4H543.78z"/>
	<path class="st0" d="M583.38,268.28v28.24h-4.72v-4.72c-2.32,3.44-6.24,5.12-10.56,5.12c-8,0-13.36-5.52-13.36-13.6
		c0-8,5.36-13.44,13.36-13.44c4,0,7.76,1.36,10.08,4.4v-5.92c0-6.4-3.36-10-9.68-10c-4,0-7.84,1.52-10.48,3.28v-5.2
		c3.04-1.52,6.88-2.72,11.12-2.72C578.18,253.72,583.38,259,583.38,268.28z M578.5,283.24c0-5.84-3.92-9.28-9.12-9.28
		c-5.36,0-9.28,3.6-9.28,9.28s3.92,9.44,9.28,9.44C574.58,292.68,578.5,289.08,578.5,283.24z"/>
	<path class="st0" d="M598.82,294.12c0,5.12-3.2,10.64-9.76,12.96l-0.4-0.8c3.28-2.56,5.2-6.08,5.6-9.68c-2.4,0.08-4-1.44-4-3.76
		c0-2.56,1.76-4.08,4.16-4.08C596.98,288.76,598.82,290.28,598.82,294.12z"/>
	<path class="st0" d="M659.62,275.32c0,12.64-7.6,21.6-19.36,21.6c-7.04,0-12.56-3.52-15.12-9.04v19.44h-5.12v-53.2h4.8v9.28
		c2.64-6.08,8.32-9.68,15.44-9.68C652.02,253.72,659.62,262.68,659.62,275.32z M654.26,275.32c0-10.08-5.92-16.64-14.56-16.64
		c-8.48,0-14.72,6.48-14.72,16.64s6.24,16.64,14.72,16.64C648.34,291.96,654.26,285.4,654.26,275.32z"/>
	<path class="st0" d="M662.98,275.32c0-12.72,8.56-21.6,20.96-21.6s20.88,8.88,20.88,21.6c0,12.72-8.48,21.6-20.88,21.6
		S662.98,288.04,662.98,275.32z M699.46,275.32c0-10-6.64-16.56-15.52-16.56c-8.88,0-15.52,6.56-15.52,16.56
		c0,10,6.64,16.56,15.52,16.56C692.82,291.88,699.46,285.32,699.46,275.32z"/>
	<path class="st0" d="M728.74,254.28v5.6c-1.52-0.64-3.2-1.12-4.96-1.12c-4.96,0-8.4,3.76-8.4,10.24v27.52h-5.12v-42.4h4.8v5.6
		c1.84-3.84,5.12-6,9.6-6C726.02,253.72,727.38,253.96,728.74,254.28z"/>
	<path class="st0" d="M773.85,257.4c0,10.64-6.32,16.96-16.32,16.96h-4.4v22.16h-5.36v-55.84h9.76
		C767.53,240.68,773.85,246.84,773.85,257.4z M757.13,269.56c7.04,0,11.36-4.16,11.36-12s-4.32-12.16-11.36-12.16h-4v24.16H757.13z"
		/>
	<path class="st0" d="M813.77,276.68h-33.04c0.64,9.52,7.2,15.44,16.4,15.44c4.08,0,9.12-1.2,12.88-4.16v5.6
		c-3.92,2.32-8.72,3.36-13.28,3.36c-12.8,0-21.36-8.72-21.36-21.6c0-12.72,8.16-21.6,20.16-21.6
		C807.61,253.72,815.29,262.6,813.77,276.68z M780.81,272.2h27.92c-0.32-8.64-5.68-13.76-13.28-13.76S781.93,263.72,780.81,272.2z"
		/>
	<path class="st0" d="M851.61,239.4h5.2v57.12h-4.8V287c-2.56,6.24-8.24,9.92-15.52,9.92c-11.76,0-19.36-8.96-19.36-21.6
		c0-12.64,7.6-21.6,19.36-21.6c7.04,0,12.56,3.44,15.12,8.88V239.4z M851.77,275.32c0-10.16-6.16-16.64-14.64-16.64
		c-8.72,0-14.56,6.56-14.56,16.64s5.84,16.64,14.56,16.64C845.61,291.96,851.77,285.48,851.77,275.32z"/>
	<path class="st0" d="M882.81,254.28v5.6c-1.52-0.64-3.2-1.12-4.96-1.12c-4.96,0-8.4,3.76-8.4,10.24v27.52h-5.12v-42.4h4.8v5.6
		c1.84-3.84,5.12-6,9.6-6C880.09,253.72,881.45,253.96,882.81,254.28z"/>
	<path class="st0" d="M881.93,275.32c0-12.72,8.56-21.6,20.96-21.6s20.88,8.88,20.88,21.6c0,12.72-8.48,21.6-20.88,21.6
		S881.93,288.04,881.93,275.32z M918.41,275.32c0-10-6.64-16.56-15.52-16.56s-15.52,6.56-15.52,16.56c0,10,6.64,16.56,15.52,16.56
		S918.41,285.32,918.41,275.32z"/>
	<path class="st0" d="M968.41,296.52l-2.72-12.16h-17.44l-2.72,12.16h-5.28l12.88-55.84h7.92l12.88,55.84H968.41z M949.29,279.8
		h15.36l-7.6-34.16L949.29,279.8z"/>
	<path class="st0" d="M996.65,254.28v5.6c-1.52-0.64-3.2-1.12-4.96-1.12c-4.96,0-8.4,3.76-8.4,10.24v27.52h-5.12v-42.4h4.8v5.6
		c1.84-3.84,5.12-6,9.6-6C993.93,253.72,995.29,253.96,996.65,254.28z"/>
	<path class="st0" d="M999.69,245.08c0-2.24,1.52-3.6,3.76-3.6s3.76,1.36,3.76,3.6s-1.6,3.68-3.76,3.68S999.69,247.32,999.69,245.08
		z M1000.89,296.52v-42.4h5.2v42.4H1000.89z"/>
	<path class="st0" d="M1013.69,296.52V239.4h5.12v57.12H1013.69z"/>
	<path class="st0" d="M1026.33,296.52V239.4h5.12v57.12H1026.33z"/>
	<path class="st0" d="M1065.77,268.28v28.24h-4.72v-4.72c-2.32,3.44-6.24,5.12-10.56,5.12c-8,0-13.36-5.52-13.36-13.6
		c0-8,5.36-13.44,13.36-13.44c4,0,7.76,1.36,10.08,4.4v-5.92c0-6.4-3.36-10-9.68-10c-4,0-7.84,1.52-10.48,3.28v-5.2
		c3.04-1.52,6.88-2.72,11.12-2.72C1060.57,253.72,1065.77,259,1065.77,268.28z M1060.89,283.24c0-5.84-3.92-9.28-9.12-9.28
		c-5.36,0-9.28,3.6-9.28,9.28s3.92,9.44,9.28,9.44C1056.97,292.68,1060.89,289.08,1060.89,283.24z"/>
</g>
</svg>
